<?xml version="1.0" encoding="utf-8"?>
<!-- Generator: Adobe Illustrator 22.0.1, SVG Export Plug-In . SVG Version: 6.00 Build 0)  -->
<svg version="1.1" id="Layer_2" xmlns="http://www.w3.org/2000/svg" xmlns:xlink="http://www.w3.org/1999/xlink" x="0px" y="0px"
	 viewBox="0 0 15 15.6" style="enable-background:new 0 0 15 15.6;" xml:space="preserve">
<style type="text/css">
	.st0{clip-path:url(#SVGID_2_);fill:#FAA627;}
</style>
<g>
	<defs>
		<rect id="SVGID_1_" x="0.5" y="0.8" width="14" height="14"/>
	</defs>
	<clipPath id="SVGID_2_">
		<use xlink:href="#SVGID_1_"  style="overflow:visible;"/>
	</clipPath>
	<path class="st0" d="M7.5,13.8c-3.3,0-6-2.7-6-6c0-3.3,2.6-5.9,5.8-6v6c0,0.1,0,0.1,0.1,0.2l5.1,3.1C11.5,12.7,9.6,13.8,7.5,13.8
		 M11.6,7.6h1.6V8h-1.6V7.6z M12.4,4.7l0.2,0.4l-1.4,0.8L11,5.5L12.4,4.7z M10.5,2.9L9.7,4.3L9.4,4.1l0.8-1.4L10.5,2.9z M7.5,0.8
		c-3.9,0-7,3.1-7,7s3.1,7,7,7s7-3.1,7-7C14.5,3.9,11.4,0.8,7.5,0.8"/>
</g>
</svg>
