<?xml version="1.0" encoding="utf-8"?>
<!-- Generator: Adobe Illustrator 22.0.1, SVG Export Plug-In . SVG Version: 6.00 Build 0)  -->
<svg version="1.1" id="Layer_1" xmlns="http://www.w3.org/2000/svg" xmlns:xlink="http://www.w3.org/1999/xlink" x="0px" y="0px"
	 viewBox="0 0 190 35" style="enable-background:new 0 0 190 35;" xml:space="preserve">
<style type="text/css">
	.st0{fill-rule:evenodd;clip-rule:evenodd;fill:#FAA625;}
	.st1{fill-rule:evenodd;clip-rule:evenodd;fill:#FFD144;}
</style>
<g>
	<path class="st0" d="M20.5,25.5c-1-0.9-2.6-1.3-4.7-1.3c-2,0-3.6,0.5-4.6,1.3c0,0,0,0,0,0c-1.1-0.9-2.6-1.3-4.6-1.3
		c-2.1,0-3.6,0.5-4.7,1.4c-1.2,0.9-1.8,2.4-1.8,4.4l0,4.1c0,0.1,0.1,0.3,0.2,0.4c0.1,0.1,0.2,0.1,0.4,0.1h0l21.2-0.1
		c0.3,0,0.5-0.2,0.5-0.5l0-4.1C22.3,27.9,21.7,26.4,20.5,25.5z M3.8,30.7l0-0.9c0-0.3,0-0.6,0.1-0.9c0-0.2,0.1-0.4,0.3-0.5
		c0.2-0.2,0.4-0.3,0.8-0.4c0.4-0.1,0.9-0.2,1.6-0.2l0-0.5v0.5c1.4,0,2,0.3,2.3,0.5c0,0,0.1,0.1,0.3,0.4c0.1,0.1,0.2,0.4,0.2,1.1
		l0,0.9L3.8,30.7z M13.1,30.7l0-0.9c0-0.3,0-0.6,0.1-0.9c0-0.2,0.1-0.4,0.3-0.5c0.2-0.2,0.4-0.3,0.8-0.4c0.4-0.1,0.9-0.2,1.7-0.2
		l0-0.5v0.5c0.7,0,1.2,0.1,1.6,0.2c0.3,0.1,0.6,0.2,0.8,0.4c0.1,0.1,0.2,0.3,0.3,0.5c0.1,0.3,0.1,0.6,0.1,0.9l0,0.9L13.1,30.7z"/>
	<path class="st0" d="M0.2,10.2c0.1,0.1,0.2,0.1,0.4,0.1h0l21.2-0.1c0.3,0,0.5-0.2,0.5-0.5l0-8.8c0-0.3-0.2-0.5-0.5-0.5h0l-2.7,0
		c-0.1,0-0.3,0.1-0.4,0.2c-0.1,0.1-0.2,0.2-0.2,0.4l0,5.5l-5.5,0l0-5.5c0-0.1-0.1-0.3-0.2-0.4c-0.1-0.1-0.2-0.1-0.4-0.1h0l-2.7,0
		c-0.3,0-0.5,0.2-0.5,0.5l0,5.5l-5.5,0l0-5.5c0-0.3-0.2-0.5-0.5-0.5h0l-2.7,0c-0.1,0-0.3,0.1-0.4,0.2C0.1,0.8,0,1,0,1.1l0,8.8
		C0,10,0.1,10.1,0.2,10.2z"/>
	<path class="st0" d="M0.6,23.1L0.6,23.1L21.7,23c0.3,0,0.5-0.2,0.5-0.5l0-2.7c0-0.1-0.1-0.3-0.2-0.4c-0.1-0.1-0.2-0.1-0.4-0.1h0
		l-10.1,0l10.3-4.2c0.2-0.1,0.3-0.3,0.3-0.5l0-2.3c0-0.1-0.1-0.3-0.2-0.4c-0.1-0.1-0.2-0.2-0.4-0.1L0.5,11.9c-0.3,0-0.5,0.2-0.5,0.5
		l0,2.7c0,0.1,0.1,0.3,0.2,0.4c0.1,0.1,0.2,0.1,0.4,0.1l10.1,0L0.4,19.8C0.2,19.9,0,20.1,0,20.3l0,2.3c0,0.1,0.1,0.3,0.2,0.4
		C0.3,23,0.4,23.1,0.6,23.1z"/>
	<path class="st0" d="M51.2,0.5h-6.8c-0.3,0-0.5,0.2-0.5,0.5v32.9c0,0.3,0.2,0.5,0.5,0.5h4.2c0.3,0,0.5-0.2,0.5-0.5V20.1h2.1
		c3,0,5.3-0.9,6.8-2.7c1.4-1.6,2.1-4,2.1-7.2c0-3.1-0.7-5.5-2.1-7.1C56.5,1.4,54.2,0.5,51.2,0.5z M54,14c0,0-0.2,0.2-0.7,0.5
		c-0.2,0.1-0.7,0.3-2.1,0.3h-2.1v-9h2.1c0.6,0,1.2,0.1,1.7,0.2c0.4,0.1,0.8,0.3,1,0.6c0.3,0.3,0.5,0.7,0.7,1.3
		c0.2,0.6,0.2,1.4,0.2,2.5C54.9,12.6,54.4,13.6,54,14z"/>
	<path class="st0" d="M154.4,0.5h-4.2c-0.3,0-0.5,0.2-0.5,0.5v24.1c0,1.1-0.1,1.9-0.3,2.5c-0.2,0.5-0.4,0.9-0.7,1.1
		c-0.2,0.2-0.5,0.3-0.8,0.4c-0.7,0.1-1.2,0.1-1.8,0c-0.3,0-0.5-0.2-0.8-0.4c-0.3-0.2-0.5-0.6-0.7-1.1c-0.2-0.6-0.3-1.4-0.3-2.5V1
		c0-0.3-0.2-0.5-0.5-0.5h-4.2c-0.3,0-0.5,0.2-0.5,0.5v24.1c0,2.8,0.6,5.1,1.9,6.6c0.5,0.6,1.2,1.3,2.2,1.8c1,0.6,2.3,0.9,3.8,0.9
		c1.6,0,2.9-0.3,3.8-0.9c0.9-0.6,1.7-1.2,2.1-1.8c1.3-1.5,1.9-3.8,1.9-6.6V1C154.9,0.8,154.7,0.5,154.4,0.5z"/>
	<path class="st1" d="M133.1,1.4c-1-0.6-2.4-0.9-4.1-0.9c-0.8,0-1.6,0.1-2.3,0.3c-0.7,0.2-1.3,0.4-1.8,0.7c-0.5,0.3-1,0.6-1.4,0.9
		c-0.4,0.3-0.7,0.6-0.9,1c-1.3,1.7-2,4.1-2,7.1v14.1c0,3,0.7,5.4,2,7.1c0.5,0.6,1.3,1.3,2.3,1.9c1,0.6,2.4,0.9,4.1,0.9
		c1.7,0,3.1-0.3,4.1-0.9c1-0.6,1.7-1.2,2.3-1.9c1.3-1.7,2-4.1,2-7.1V10.4c0-3-0.7-5.4-2-7.1C134.9,2.7,134.1,2,133.1,1.4z M132,28.8
		c0,0.1,0,0.2-0.1,0.2c-0.1,0.1-0.1,0.1-0.2,0.1h-5.2c-0.1,0-0.2,0-0.2-0.1c-0.1-0.1-0.1-0.2-0.1-0.2l1.2-17
		c-1.1-0.6-1.8-1.8-1.8-3.1c0-2,1.6-3.5,3.5-3.5c1.9,0,3.5,1.6,3.5,3.5c0,1.3-0.7,2.5-1.8,3.1L132,28.8z"/>
	<path class="st0" d="M75.8,0.6H62.2c-0.3,0-0.5,0.2-0.5,0.5V34c0,0.3,0.2,0.5,0.5,0.5h13.6c0.3,0,0.5-0.2,0.5-0.5v-4.2
		c0-0.3-0.2-0.5-0.5-0.5h-8.9v-9.1h8.9c0.3,0,0.5-0.2,0.5-0.5v-4.2c0-0.3-0.2-0.5-0.5-0.5h-8.9V5.8h8.9c0.3,0,0.5-0.2,0.5-0.5V1.1
		C76.3,0.8,76.1,0.6,75.8,0.6z"/>
	<path class="st0" d="M169.5,1.4c-1-0.6-2.4-0.9-4.1-0.9c-1.2,0-2.4,0.2-3.4,0.7c-1,0.5-1.9,1.2-2.7,2c-0.7,0.9-1.3,1.9-1.7,3.1
		c-0.4,1.2-0.6,2.5-0.6,4c0,2.8,1,5.2,2.8,7c0.7,0.7,1.5,1.3,2.3,1.7c0.7,0.4,1.4,0.7,1.8,0.9l0.8,0.4c0.5,0.2,0.9,0.4,1.4,0.7
		c0.4,0.2,0.8,0.5,1.2,0.9c0.3,0.3,0.6,0.7,0.8,1.2c0.2,0.5,0.3,1.1,0.3,1.8c0,0.4,0,0.9-0.1,1.5c-0.1,0.5-0.2,1-0.4,1.4
		c-0.2,0.4-0.5,0.8-0.9,1.1c-0.4,0.3-0.9,0.4-1.6,0.4c-0.9,0-1.4-0.1-1.6-0.3c-0.4-0.2-0.6-0.4-0.7-0.5c-0.6-0.7-0.9-2-0.9-3.8v-2.1
		c0-0.3-0.2-0.5-0.5-0.5h-4.2c-0.3,0-0.5,0.2-0.5,0.5v2.1c0,3.1,0.7,5.4,2,7.1c1.4,1.8,3.6,2.7,6.3,2.7c2.7,0,4.8-1,6.4-3
		c1.3-1.7,2-4,2-6.6c0-2.8-1-5.2-2.9-6.9c-0.7-0.7-1.5-1.3-2.3-1.6c-0.7-0.3-1.3-0.6-1.7-0.8l-0.7-0.3c-0.5-0.2-1-0.4-1.5-0.7
		c-0.4-0.3-0.8-0.6-1.2-0.9c-0.3-0.4-0.6-0.8-0.8-1.3c-0.2-0.5-0.3-1.1-0.3-1.8c0-0.3,0-0.7,0.1-1.3c0.1-0.5,0.2-1.1,0.4-1.6
		c0.2-0.5,0.5-0.9,1-1.3c0.4-0.3,0.9-0.5,1.7-0.5c0.3,0,0.6,0,1,0.1c0.3,0,0.6,0.2,1,0.4c0.3,0.2,0.6,0.7,0.8,1.3
		c0.2,0.7,0.3,1.6,0.3,2.8v2.1c0,0.3,0.2,0.5,0.5,0.5h4.2c0.3,0,0.5-0.2,0.5-0.5v-2.1c0-3-0.7-5.4-2-7.2
		C171.3,2.7,170.5,2,169.5,1.4z"/>
	<path class="st0" d="M117.9,0.6h-4.2c-0.3,0-0.5,0.2-0.5,0.5v13.8h-5.3V1.1c0-0.3-0.2-0.5-0.5-0.5h-4.2c-0.3,0-0.5,0.2-0.5,0.5V34
		c0,0.3,0.2,0.5,0.5,0.5h4.2c0.3,0,0.5-0.2,0.5-0.5V20.2h5.3V34c0,0.3,0.2,0.5,0.5,0.5h4.2c0.3,0,0.5-0.2,0.5-0.5V1.1
		C118.4,0.8,118.1,0.6,117.9,0.6z"/>
	<path class="st0" d="M94.6,0.5h-4.2c-0.3,0-0.5,0.2-0.5,0.5v17.2l-7-17.4c-0.1-0.2-0.3-0.3-0.5-0.3h-3.5c-0.3,0-0.5,0.2-0.5,0.5
		v32.9c0,0.3,0.2,0.5,0.5,0.5H83c0.3,0,0.5-0.2,0.5-0.5V16.7l7,17.4c0.1,0.2,0.3,0.3,0.5,0.3h3.6c0.3,0,0.5-0.2,0.5-0.5V1
		C95.1,0.8,94.9,0.5,94.6,0.5z"/>
	<path class="st0" d="M189.5,5.8c0.3,0,0.5-0.2,0.5-0.5V1.1c0-0.3-0.2-0.5-0.5-0.5h-13.6c-0.3,0-0.5,0.2-0.5,0.5V34
		c0,0.3,0.2,0.5,0.5,0.5h13.6c0.3,0,0.5-0.2,0.5-0.5v-4.2c0-0.3-0.2-0.5-0.5-0.5h-8.9v-9.1h8.9c0.3,0,0.5-0.2,0.5-0.5v-4.2
		c0-0.3-0.2-0.5-0.5-0.5h-8.9V5.8H189.5z"/>
	<path class="st0" d="M37.5,1.5c-1-0.6-2.4-0.9-4.1-0.9c-0.8,0-1.6,0.1-2.3,0.3c-0.7,0.2-1.3,0.4-1.8,0.7c-0.5,0.3-1,0.6-1.4,0.9
		c-0.4,0.3-0.7,0.6-0.9,1c-1.3,1.7-2,4.1-2,7.1v14.1c0,3,0.7,5.4,2,7.1c0.5,0.6,1.3,1.3,2.3,1.9c1,0.6,2.4,0.9,4.1,0.9
		c1.7,0,3.1-0.3,4.1-0.9c1-0.6,1.7-1.2,2.3-1.9c1.3-1.7,2-4.1,2-7.1V10.4c0-3-0.7-5.4-2-7.1C39.2,2.7,38.5,2.1,37.5,1.5z M36.5,24.6
		c0,1.2-0.1,2.2-0.3,2.8c-0.2,0.6-0.5,1-0.8,1.3c-0.3,0.3-0.6,0.4-1,0.4c-0.8,0.1-1.3,0.1-2,0c-0.3,0-0.6-0.2-0.9-0.4
		c-0.3-0.3-0.6-0.7-0.8-1.3c-0.2-0.6-0.3-1.6-0.3-2.8V10.4c0-1.2,0.1-2.2,0.3-2.8c0.2-0.6,0.5-1,0.8-1.3c0.3-0.3,0.6-0.4,0.9-0.4
		c0.4-0.1,0.7-0.1,1-0.1c0.3,0,0.6,0,1,0.1c0.3,0,0.6,0.2,1,0.4c0.3,0.3,0.6,0.7,0.8,1.3c0.2,0.6,0.3,1.6,0.3,2.8V24.6z"/>
</g>
</svg>
