<?xml version="1.0" encoding="utf-8"?>
<!-- Generator: Adobe Illustrator 22.0.1, SVG Export Plug-In . SVG Version: 6.00 Build 0)  -->
<svg version="1.1" id="Layer_2" xmlns="http://www.w3.org/2000/svg" xmlns:xlink="http://www.w3.org/1999/xlink" x="0px" y="0px"
	 viewBox="0 0 19 19" style="enable-background:new 0 0 19 19;" xml:space="preserve">
<style type="text/css">
	.st0{clip-path:url(#SVGID_2_);fill:#FAA627;}
</style>
<g>
	<defs>
		<rect id="SVGID_1_" width="19" height="19"/>
	</defs>
	<clipPath id="SVGID_2_">
		<use xlink:href="#SVGID_1_"  style="overflow:visible;"/>
	</clipPath>
	<path class="st0" d="M14.9,14.9H7L14.9,7V14.9z M17.6,6.7c-0.2,0-0.4-0.2-0.4-0.4c0-0.2,0.2-0.4,0.4-0.4H19V3.6h-1.4
		c-0.2,0-0.4-0.2-0.4-0.4c0-0.2,0.2-0.4,0.4-0.4H19V2c0-0.8-0.5-1.6-1.3-1.9C17-0.2,16.1,0,15.5,0.6L0.6,15.5
		C0,16.1-0.2,17,0.2,17.7S1.2,19,2,19h0.8v-1.4c0-0.2,0.2-0.4,0.4-0.4c0.2,0,0.4,0.2,0.4,0.4V19H6v-1.4c0-0.2,0.2-0.4,0.4-0.4
		c0.2,0,0.4,0.2,0.4,0.4V19h2.3v-1.4c0-0.2,0.2-0.4,0.4-0.4s0.4,0.2,0.4,0.4V19h2.4v-1.4c0-0.2,0.2-0.4,0.4-0.4s0.4,0.2,0.4,0.4V19
		h2.3v-1.4c0-0.2,0.2-0.4,0.4-0.4c0.2,0,0.4,0.2,0.4,0.4V19H17c1.1,0,2-0.9,2-2v-0.9h-1.4c-0.2,0-0.4-0.2-0.4-0.4
		c0-0.2,0.2-0.4,0.4-0.4H19V13h-1.4c-0.2,0-0.4-0.2-0.4-0.4c0-0.2,0.2-0.4,0.4-0.4H19V9.9h-1.4c-0.2,0-0.4-0.2-0.4-0.4
		c0-0.2,0.2-0.4,0.4-0.4H19V6.7H17.6z"/>
</g>
</svg>
