<?xml version="1.0" encoding="utf-8"?>
<!-- Generator: Adobe Illustrator 23.0.2, SVG Export Plug-In . SVG Version: 6.00 Build 0)  -->
<svg version="1.1" id="Layer_1" xmlns="http://www.w3.org/2000/svg" xmlns:xlink="http://www.w3.org/1999/xlink" x="0px" y="0px"
	 viewBox="0 0 17.5 18.2" style="enable-background:new 0 0 17.5 18.2;" xml:space="preserve">
<style type="text/css">
	.st0{fill:#444444;stroke:#444444;stroke-width:0.7;}
</style>
<g id="np_close_2292486_000000" transform="translate(-9.017 -7.459)">
	<path id="Path_31" class="st0" d="M17.8,25.3c-4.6,0-8.4-3.8-8.4-8.4c0-2.8,1.4-5.4,3.8-7c0.3-0.2,0.7-0.1,0.9,0.2
		c0.2,0.3,0.1,0.7-0.2,0.9c0,0,0,0,0,0c-3.3,2.2-4.2,6.6-2,9.9s6.6,4.2,9.9,2s4.2-6.6,2-9.9c-0.5-0.8-1.2-1.5-2-2
		c-0.3-0.2-0.4-0.6-0.2-0.9c0.2-0.3,0.6-0.4,0.9-0.2c0,0,0,0,0,0c3.9,2.6,4.9,7.8,2.4,11.7C23.2,23.9,20.6,25.3,17.8,25.3L17.8,25.3
		z"/>
	<path id="Path_32" class="st0" d="M17.8,18.8c-0.4,0-0.6-0.3-0.6-0.6c0,0,0,0,0,0V8.5c0-0.4,0.3-0.7,0.6-0.7c0.4,0,0.7,0.3,0.7,0.6
		c0,0,0,0,0,0.1v9.7C18.4,18.5,18.1,18.8,17.8,18.8C17.8,18.8,17.8,18.8,17.8,18.8z"/>
</g>
</svg>
