<?xml version="1.0" encoding="utf-8"?>
<!-- Generator: Adobe Illustrator 22.0.1, SVG Export Plug-In . SVG Version: 6.00 Build 0)  -->
<svg version="1.1" id="Layer_2" xmlns="http://www.w3.org/2000/svg" xmlns:xlink="http://www.w3.org/1999/xlink" x="0px" y="0px"
	 viewBox="0 0 19 19" style="enable-background:new 0 0 19 19;" xml:space="preserve">
<style type="text/css">
	.st0{fill:#FAA627;}
</style>
<path class="st0" d="M11,10.5c0,0.8-0.7,1.5-1.5,1.5C8.7,12,8,11.3,8,10.5V4.4C8,3.6,8.7,3,9.5,3C10.3,3,11,3.6,11,4.4V10.5z
	 M9.5,16C8.7,16,8,15.4,8,14.6s0.7-1.5,1.5-1.5c0.8,0,1.5,0.7,1.5,1.5S10.3,16,9.5,16 M9.5,0C4.3,0,0,4.3,0,9.5S4.3,19,9.5,19
	S19,14.7,19,9.5S14.7,0,9.5,0"/>
</svg>
