<?xml version="1.0" encoding="utf-8"?>
<!-- Generator: Adobe Illustrator 22.0.1, SVG Export Plug-In . SVG Version: 6.00 Build 0)  -->
<svg version="1.1" id="Layer_1" xmlns="http://www.w3.org/2000/svg" xmlns:xlink="http://www.w3.org/1999/xlink" x="0px" y="0px"
	 viewBox="0 0 24 24" style="enable-background:new 0 0 24 24;" xml:space="preserve">
<style type="text/css">
	.st0{fill:#FAA625;}
</style>
<path class="st0" d="M16.7,14.8h-1l-0.4-0.3c1.2-1.4,2-3.3,2-5.3c0-4.5-3.7-8.2-8.2-8.2S1,4.7,1,9.2s3.7,8.2,8.2,8.2
	c2,0,3.9-0.7,5.3-2l0.3,0.4v1l6.3,6.3l1.9-1.9L16.7,14.8z M9.2,14.8c-3.1,0-5.7-2.5-5.7-5.7S6,3.5,9.2,3.5s5.7,2.5,5.7,5.7
	S12.3,14.8,9.2,14.8z"/>
</svg>
