<?xml version="1.0" encoding="utf-8"?>
<!-- Generator: Adobe Illustrator 22.0.1, SVG Export Plug-In . SVG Version: 6.00 Build 0)  -->
<svg version="1.1" id="Layer_2" xmlns="http://www.w3.org/2000/svg" xmlns:xlink="http://www.w3.org/1999/xlink" x="0px" y="0px"
	 viewBox="0 0 24 24" style="enable-background:new 0 0 24 24;" xml:space="preserve">
<style type="text/css">
	.st0{fill-rule:evenodd;clip-rule:evenodd;fill:#ABABAB;}
</style>
<path class="st0" d="M14.9,0.7C14.2,0.2,13.2,0,12,0c-0.6,0-1.1,0.1-1.6,0.2C9.9,0.3,9.5,0.5,9.1,0.7c-0.4,0.2-0.7,0.4-1,0.6
	C7.9,1.5,7.7,1.7,7.5,2C6.6,3.2,6.1,4.9,6.1,7v10c0,2.1,0.5,3.8,1.4,5c0.4,0.5,0.9,0.9,1.6,1.3C9.9,23.8,10.8,24,12,24
	c1.2,0,2.2-0.2,2.9-0.7c0.7-0.4,1.2-0.9,1.6-1.3c0.9-1.2,1.4-2.9,1.4-5V7c0-2.1-0.5-3.8-1.4-5C16.1,1.5,15.6,1.1,14.9,0.7z M14.1,20
	c0,0.1,0,0.1-0.1,0.2c0,0-0.1,0.1-0.2,0.1h-3.7c-0.1,0-0.1,0-0.2-0.1S10,20.1,10,20l0.9-12C10,7.6,9.5,6.7,9.5,5.8
	c0-1.4,1.1-2.5,2.5-2.5c1.4,0,2.5,1.1,2.5,2.5c0,0.9-0.5,1.7-1.3,2.2L14.1,20z"/>
</svg>
