<?xml version="1.0" encoding="utf-8"?>
<!-- Generator: Adobe Illustrator 22.0.1, SVG Export Plug-In . SVG Version: 6.00 Build 0)  -->
<svg version="1.1" id="Layer_3" xmlns="http://www.w3.org/2000/svg" xmlns:xlink="http://www.w3.org/1999/xlink" x="0px" y="0px"
	 viewBox="0 0 19 19" style="enable-background:new 0 0 19 19;" xml:space="preserve">
<style type="text/css">
	.st0{clip-path:url(#SVGID_2_);fill:#FAA627;}
</style>
<g>
	<defs>
		<rect id="SVGID_1_" width="19" height="19"/>
	</defs>
	<clipPath id="SVGID_2_">
		<use xlink:href="#SVGID_1_"  style="overflow:visible;"/>
	</clipPath>
	<path class="st0" d="M12.3,17.2c0.6-0.8,1.1-1.9,1.5-3.1h2.5C15.3,15.5,13.9,16.6,12.3,17.2 M2.7,14h2.5c0.4,1.3,0.9,2.4,1.5,3.2
		C5.1,16.6,3.7,15.5,2.7,14 M6.8,1.8C6.1,2.6,5.6,3.7,5.2,5H2.7C3.6,3.6,5.1,2.4,6.8,1.8 M16.3,5h-2.5c-0.4-1.3-0.9-2.4-1.5-3.2
		C13.9,2.4,15.4,3.6,16.3,5 M14.4,9.1c0-1.2-0.2-2.2-0.4-3.2h2.8c0.5,1,0.8,2.1,0.9,3.2H14.4z M14.4,9.9h3.3
		c-0.1,1.2-0.4,2.3-0.9,3.3H14C14.2,12.2,14.3,11.1,14.4,9.9 M9.9,13.2V9.9h3.6c0,1.2-0.2,2.3-0.4,3.3H9.9z M5.5,9.9h3.6v3.3H5.9
		C5.6,12.2,5.5,11.1,5.5,9.9 M4.7,9.1H1.4c0.1-1.2,0.4-2.3,0.9-3.2H5C4.8,6.9,4.7,7.9,4.7,9.1 M9.1,5.9v3.2H5.5
		c0-1.2,0.2-2.2,0.4-3.2H9.1z M13.1,5.9c0.2,1,0.4,2.1,0.4,3.2H9.9V5.9H13.1z M12.9,5h-3V1.4c0.3,0,0.5,0,0.8,0.1
		C11.6,2,12.4,3.3,12.9,5 M8.4,1.4c0.2,0,0.5-0.1,0.7-0.1V5h-3C6.6,3.3,7.4,2,8.4,1.4 M1.4,9.9h3.3c0,1.2,0.2,2.3,0.4,3.3H2.2
		C1.7,12.2,1.4,11.1,1.4,9.9 M6.1,14h3v3.6c-0.3,0-0.5,0-0.7-0.1C7.4,17,6.6,15.7,6.1,14 M10.7,17.6c-0.3,0-0.5,0.1-0.8,0.1V14h3
		C12.4,15.7,11.6,17,10.7,17.6 M9.5,0C4.3,0,0,4.3,0,9.5C0,14.7,4.3,19,9.5,19S19,14.7,19,9.5C19,4.3,14.7,0,9.5,0"/>
</g>
</svg>
